<?xml version="1.0" standalone="no"?>
<!DOCTYPE svg PUBLIC "-//W3C//DTD SVG 20010904//EN"
 "http://www.w3.org/TR/2001/REC-SVG-20010904/DTD/svg10.dtd">
<svg version="1.0" xmlns="http://www.w3.org/2000/svg"
 width="1024.000000pt" height="1024.000000pt" viewBox="0 0 1024.000000 1024.000000"
 preserveAspectRatio="xMidYMid meet">
<metadata>
Created by potrace 1.11, written by Peter Selinger 2001-2013
</metadata>
<g transform="translate(0.000000,1024.000000) scale(0.100000,-0.100000)"
fill="#000000" stroke="none">
<path d="M2155 8585 c-139 -31 -230 -82 -328 -182 -92 -94 -143 -187 -172
-313 -13 -57 -15 -365 -15 -2387 l0 -2323 3480 0 3480 0 0 2323 c0 2022 -2
2330 -15 2387 -32 138 -90 236 -198 339 -41 38 -146 111 -160 111 -5 0 -23 7
-41 15 -94 45 5 43 -3066 43 -2404 0 -2915 -2 -2965 -13z m5575 -2595 l0
-1740 -2610 0 -2610 0 0 1740 0 1740 2610 0 2610 0 0 -1740z"/>
<path d="M4338 7005 c-49 -16 -95 -54 -208 -170 -135 -138 -395 -404 -576
-586 -157 -160 -188 -203 -186 -266 2 -55 29 -92 191 -256 86 -88 237 -241
336 -342 99 -101 220 -225 270 -275 141 -145 206 -170 307 -121 59 28 80 48
233 222 67 76 81 139 46 214 -12 25 -114 136 -279 303 l-261 262 261 263 c166
167 267 277 279 302 23 50 23 110 1 151 -17 31 -120 151 -195 226 -70 70 -150
97 -219 73z"/>
<path d="M5798 7005 c-62 -21 -108 -59 -213 -176 -91 -102 -106 -127 -112
-183 -5 -47 -2 -61 20 -98 14 -24 141 -159 281 -300 l256 -258 -263 -265
c-155 -157 -269 -280 -279 -303 -39 -84 -20 -137 96 -267 99 -112 117 -129
170 -160 85 -50 173 -32 261 53 58 56 775 789 800 818 74 84 76 156 7 239 -49
59 -785 808 -842 856 -60 50 -121 65 -182 44z"/>
<path d="M946 2938 c-63 -9 -117 -48 -149 -106 -25 -47 -26 -52 -26 -238 0
-129 4 -207 14 -242 7 -29 11 -52 9 -52 -5 0 42 -125 64 -170 54 -109 192
-268 292 -337 95 -64 238 -124 336 -140 27 -4 1669 -8 3649 -8 3397 0 3604 1
3668 18 251 64 479 254 593 496 54 112 72 221 73 431 0 176 -1 195 -21 233
-24 49 -59 83 -108 105 -32 14 -199 16 -1703 16 -918 1 -1670 -1 -1672 -4 -2
-3 -6 -23 -9 -45 -25 -157 -95 -263 -215 -329 -100 -54 -114 -55 -637 -55
-543 0 -541 -1 -653 76 -56 39 -144 137 -156 173 -3 11 -10 20 -14 20 -7 0
-33 81 -45 140 l-5 25 -1619 0 c-890 0 -1640 -3 -1666 -7z"/>
</g>
</svg>
